<mxfile host="Electron" modified="2024-05-31T22:08:27.014Z" agent="Mozilla/5.0 (Windows NT 10.0; Win64; x64) AppleWebKit/537.36 (KHTML, like Gecko) draw.io/24.0.4 Chrome/120.0.6099.109 Electron/28.1.0 Safari/537.36" etag="NztRLX8xXi-PVK5UQUC0" version="24.0.4" type="device">
  <diagram name="Page-1" id="gBAlNevILvcD3DgFU2FL">
    <mxGraphModel dx="1661" dy="753" grid="1" gridSize="10" guides="1" tooltips="1" connect="1" arrows="1" fold="1" page="1" pageScale="1" pageWidth="827" pageHeight="1169" math="0" shadow="0">
      <root>
        <mxCell id="0" />
        <mxCell id="1" parent="0" />
        <mxCell id="rO41ftjsoo5HJNc55BJx-13" style="edgeStyle=orthogonalEdgeStyle;rounded=0;orthogonalLoop=1;jettySize=auto;html=1;endArrow=diamondThin;endFill=0;endSize=12;" edge="1" parent="1" source="rO41ftjsoo5HJNc55BJx-1" target="rO41ftjsoo5HJNc55BJx-12">
          <mxGeometry relative="1" as="geometry" />
        </mxCell>
        <mxCell id="rO41ftjsoo5HJNc55BJx-1" value="Article" style="rounded=1;whiteSpace=wrap;html=1;" vertex="1" parent="1">
          <mxGeometry x="360" y="260" width="120" height="60" as="geometry" />
        </mxCell>
        <mxCell id="rO41ftjsoo5HJNc55BJx-5" style="edgeStyle=orthogonalEdgeStyle;rounded=0;orthogonalLoop=1;jettySize=auto;html=1;endArrow=diamondThin;endFill=1;endSize=12;" edge="1" parent="1" source="rO41ftjsoo5HJNc55BJx-2" target="rO41ftjsoo5HJNc55BJx-1">
          <mxGeometry relative="1" as="geometry">
            <Array as="points">
              <mxPoint x="400" y="190" />
            </Array>
          </mxGeometry>
        </mxCell>
        <mxCell id="rO41ftjsoo5HJNc55BJx-2" value="EAN" style="rounded=1;whiteSpace=wrap;html=1;" vertex="1" parent="1">
          <mxGeometry x="200" y="160" width="120" height="60" as="geometry" />
        </mxCell>
        <mxCell id="rO41ftjsoo5HJNc55BJx-6" style="edgeStyle=orthogonalEdgeStyle;rounded=0;orthogonalLoop=1;jettySize=auto;html=1;endArrow=none;endFill=0;endSize=12;" edge="1" parent="1" source="rO41ftjsoo5HJNc55BJx-3" target="rO41ftjsoo5HJNc55BJx-1">
          <mxGeometry relative="1" as="geometry">
            <Array as="points">
              <mxPoint x="440" y="190" />
            </Array>
          </mxGeometry>
        </mxCell>
        <mxCell id="rO41ftjsoo5HJNc55BJx-3" value="Categorie" style="rounded=1;whiteSpace=wrap;html=1;" vertex="1" parent="1">
          <mxGeometry x="520" y="160" width="120" height="60" as="geometry" />
        </mxCell>
        <mxCell id="rO41ftjsoo5HJNc55BJx-7" value="*" style="text;html=1;align=center;verticalAlign=middle;resizable=0;points=[];autosize=1;strokeColor=none;fillColor=none;" vertex="1" parent="1">
          <mxGeometry x="490" y="160" width="30" height="30" as="geometry" />
        </mxCell>
        <mxCell id="rO41ftjsoo5HJNc55BJx-8" value="*" style="text;html=1;align=center;verticalAlign=middle;resizable=0;points=[];autosize=1;strokeColor=none;fillColor=none;" vertex="1" parent="1">
          <mxGeometry x="440" y="230" width="30" height="30" as="geometry" />
        </mxCell>
        <mxCell id="rO41ftjsoo5HJNc55BJx-9" value="1" style="text;html=1;align=center;verticalAlign=middle;resizable=0;points=[];autosize=1;strokeColor=none;fillColor=none;" vertex="1" parent="1">
          <mxGeometry x="370" y="230" width="30" height="30" as="geometry" />
        </mxCell>
        <mxCell id="rO41ftjsoo5HJNc55BJx-10" value="*" style="text;html=1;align=center;verticalAlign=middle;resizable=0;points=[];autosize=1;strokeColor=none;fillColor=none;" vertex="1" parent="1">
          <mxGeometry x="320" y="160" width="30" height="30" as="geometry" />
        </mxCell>
        <mxCell id="rO41ftjsoo5HJNc55BJx-12" value="Facture" style="rounded=1;whiteSpace=wrap;html=1;" vertex="1" parent="1">
          <mxGeometry x="760" y="260" width="120" height="60" as="geometry" />
        </mxCell>
        <mxCell id="rO41ftjsoo5HJNc55BJx-15" value="*" style="text;html=1;align=center;verticalAlign=middle;resizable=0;points=[];autosize=1;strokeColor=none;fillColor=none;" vertex="1" parent="1">
          <mxGeometry x="730" y="260" width="30" height="30" as="geometry" />
        </mxCell>
        <mxCell id="rO41ftjsoo5HJNc55BJx-16" value="0..*" style="text;html=1;align=center;verticalAlign=middle;resizable=0;points=[];autosize=1;strokeColor=none;fillColor=none;" vertex="1" parent="1">
          <mxGeometry x="480" y="260" width="40" height="30" as="geometry" />
        </mxCell>
        <mxCell id="rO41ftjsoo5HJNc55BJx-19" style="edgeStyle=orthogonalEdgeStyle;rounded=0;orthogonalLoop=1;jettySize=auto;html=1;endArrow=diamondThin;endFill=1;endSize=12;" edge="1" parent="1" source="rO41ftjsoo5HJNc55BJx-17" target="rO41ftjsoo5HJNc55BJx-12">
          <mxGeometry relative="1" as="geometry" />
        </mxCell>
        <mxCell id="rO41ftjsoo5HJNc55BJx-17" value="PaiementMethode" style="rounded=1;whiteSpace=wrap;html=1;" vertex="1" parent="1">
          <mxGeometry x="760" y="160" width="120" height="60" as="geometry" />
        </mxCell>
        <mxCell id="rO41ftjsoo5HJNc55BJx-20" value="*" style="text;html=1;align=center;verticalAlign=middle;resizable=0;points=[];autosize=1;strokeColor=none;fillColor=none;" vertex="1" parent="1">
          <mxGeometry x="790" y="220" width="30" height="30" as="geometry" />
        </mxCell>
        <mxCell id="rO41ftjsoo5HJNc55BJx-21" value="1" style="text;html=1;align=center;verticalAlign=middle;resizable=0;points=[];autosize=1;strokeColor=none;fillColor=none;" vertex="1" parent="1">
          <mxGeometry x="790" y="230" width="30" height="30" as="geometry" />
        </mxCell>
        <mxCell id="rO41ftjsoo5HJNc55BJx-23" value="Values" style="shape=umlFrame;whiteSpace=wrap;html=1;pointerEvents=0;dashed=1;" vertex="1" parent="1">
          <mxGeometry x="180" y="120" width="730" height="110" as="geometry" />
        </mxCell>
        <mxCell id="rO41ftjsoo5HJNc55BJx-24" value="Entities" style="shape=umlFrame;whiteSpace=wrap;html=1;pointerEvents=0;dashed=1;" vertex="1" parent="1">
          <mxGeometry x="160" y="70" width="800" height="290" as="geometry" />
        </mxCell>
        <mxCell id="rO41ftjsoo5HJNc55BJx-26" value="Domain" style="shape=umlFrame;whiteSpace=wrap;html=1;pointerEvents=0;dashed=1;" vertex="1" parent="1">
          <mxGeometry x="140" y="30" width="860" height="640" as="geometry" />
        </mxCell>
      </root>
    </mxGraphModel>
  </diagram>
</mxfile>
